<?xml version="1.0" encoding="UTF-8"?>
<svg version="1.1" xmlns="http://www.w3.org/2000/svg" width="64" height="64" viewBox="0 0 500 500">
<path d="M0 0 C165 0 330 0 500 0 C500 165 500 330 500 500 C335 500 170 500 0 500 C0 335 0 170 0 0 Z " fill="#FEFEFE" transform="translate(0,0)"/>
<path d="M0 0 C24.25796063 -1.21289803 47.52412747 7.22856678 66 23 C66.93070313 23.76957031 67.86140625 24.53914063 68.8203125 25.33203125 C88.31905246 42.14222629 100.62273461 66.54700437 104 92 C106.16115853 121.46232447 98.16672444 150.03948894 78.875 172.75 C57.89934609 196.41705623 31.22680349 206.76951404 0 209 C0 183.92 0 158.84 0 133 C-8.91 133 -17.82 133 -27 133 C-27.99 136.3 -28.98 139.6 -30 143 C-30.59205034 144.7892358 -31.19635121 146.5745789 -31.82421875 148.3515625 C-32.10096436 149.13869629 -32.37770996 149.92583008 -32.6628418 150.73681641 C-33.000979 151.68991699 -33.33911621 152.64301758 -33.6875 153.625 C-35.3271875 158.265625 -35.3271875 158.265625 -37 163 C-46.24 163 -55.48 163 -65 163 C-59.95501708 149.35884882 -54.60829813 135.84803162 -49.21875 122.33984375 C-48.27749104 119.97731411 -47.33637226 117.61472862 -46.39538574 115.25209045 C-44.18334619 109.69908463 -41.96987282 104.14665252 -39.75568533 98.59450299 C-37.2553885 92.32466944 -34.75705574 86.0540539 -32.2588377 79.78339183 C-16.79503757 40.96928971 -16.79503757 40.96928971 -10 24 C-6.7 24 -3.4 24 0 24 C0 16.08 0 8.16 0 0 Z " fill="#383C3F" transform="translate(250,146)"/>
<path d="M0 0 C6.6 0 13.2 0 20 0 C27.22609318 17.67664727 34.37814751 35.38024071 41.4453125 53.12109375 C42.39124883 55.49431526 43.33720258 57.86752984 44.28317261 60.24073792 C46.23838403 65.14675618 48.19270295 70.05312889 50.14648438 74.9597168 C52.40014217 80.61930923 54.65656132 86.27779573 56.91414082 91.93582481 C59.10819116 97.435056 61.29943218 102.93540372 63.48962021 108.43617439 C64.41458837 110.75818089 65.34039578 113.07985327 66.26706314 115.40118217 C67.55171067 118.61993464 68.83314641 121.8399474 70.11376953 125.06030273 C70.49497452 126.01338318 70.8761795 126.96646362 71.26893616 127.94842529 C71.61622269 128.82363327 71.96350922 129.69884125 72.32131958 130.60057068 C72.62320757 131.35824454 72.92509556 132.11591841 73.23613167 132.89655209 C74 135 74 135 75 139 C66.09 139 57.18 139 48 139 C46.535625 135.16375 45.07125 131.3275 43.5625 127.375 C43.10174072 126.17665527 42.64098145 124.97831055 42.16625977 123.74365234 C41.80330811 122.78410645 41.44035645 121.82456055 41.06640625 120.8359375 C40.69459229 119.86188965 40.32277832 118.8878418 39.93969727 117.88427734 C39 115 39 115 38 109 C19.85 109 1.7 109 -17 109 C-17.99 112.3 -18.98 115.6 -20 119 C-20.59205034 120.7892358 -21.19635121 122.5745789 -21.82421875 124.3515625 C-22.10096436 125.13869629 -22.37770996 125.92583008 -22.6628418 126.73681641 C-23.000979 127.68991699 -23.33911621 128.64301758 -23.6875 129.625 C-25.3271875 134.265625 -25.3271875 134.265625 -27 139 C-36.24 139 -45.48 139 -55 139 C-49.95501708 125.35884882 -44.60829813 111.84803162 -39.21875 98.33984375 C-38.27749104 95.97731411 -37.33637226 93.61472862 -36.39538574 91.25209045 C-34.18334619 85.69908463 -31.96987282 80.14665252 -29.75568533 74.59450299 C-27.2553885 68.32466944 -24.75705574 62.0540539 -22.2588377 55.78339183 C-7.22290906 18.04324615 -7.22290906 18.04324615 0 0 Z " fill="#F68237" transform="translate(240,170)"/>
<path d="M0 0 C1.70277939 2.55416908 2.66035326 4.49749226 3.69580078 7.33203125 C4.01598175 8.20303467 4.33616272 9.07403809 4.66604614 9.97143555 C5.00570404 10.90898682 5.34536194 11.84653809 5.6953125 12.8125 C6.04761932 13.77776611 6.39992615 14.74303223 6.76290894 15.73754883 C7.50621653 17.77775367 8.24746791 19.81870865 8.98681641 21.86035156 C10.12139409 24.9900532 11.26534459 28.11621703 12.41015625 31.2421875 C13.13077771 33.22375136 13.85084852 35.20551559 14.5703125 37.1875 C14.91401886 38.12505127 15.25772522 39.06260254 15.61184692 40.02856445 C16.0826619 41.33506958 16.0826619 41.33506958 16.56298828 42.66796875 C16.84119415 43.43391357 17.11940002 44.1998584 17.40603638 44.98901367 C18 47 18 47 18 50 C12.06 50 6.12 50 0 50 C0 33.5 0 17 0 0 Z " fill="#3A3B3D" transform="translate(250,207)"/>
<path d="M0 0 C0.33 0 0.66 0 1 0 C1 15.84 1 31.68 1 48 C-4.94 48 -10.88 48 -17 48 C-15.09479428 41.47435498 -13.01953202 35.07907052 -10.64453125 28.7109375 C-10.18478157 27.46698715 -10.18478157 27.46698715 -9.71574402 26.19790649 C-8.75085873 23.58920019 -7.78176277 20.98208258 -6.8125 18.375 C-6.15141159 16.58994784 -5.49060188 14.80479243 -4.83007812 13.01953125 C-3.22326544 8.67848956 -1.61267859 4.33886577 0 0 Z " fill="#F4F1F0" transform="translate(249,209)"/>
</svg>
